<svg width="64" height="64" viewBox="0 0 64 64" fill="none" xmlns="http://www.w3.org/2000/svg">
<path d="M12.0039 24.7459C12.1377 20.4457 15.6667 17 20 17C23.7276 17 26.8602 19.5498 27.7481 23H30.8185C29.8778 17.8794 25.3922 14 20 14C14.4759 14 9.90333 18.0715 9.11885 23.3779C5.0117 24.2563 2 28.0457 2 32.4811C2 37.5466 5.93366 41.7756 10.9339 41.7756C11.2944 41.7756 11.6502 41.7533 12 41.71V38.6745C11.6545 38.741 11.2983 38.7756 10.9339 38.7756C7.72287 38.7756 5 36.0252 5 32.4811C5 29.0639 7.53629 26.3791 10.594 26.1966L11.9614 26.115L12.0039 24.7459Z" fill="#00BFB3"/>
<path fill-rule="evenodd" clip-rule="evenodd" d="M35.9999 28.5C30.5205 28.5 26.0404 32.7835 25.7272 38.1836L25.6451 39.5984L24.2097 39.5967C19.6756 39.5967 16 43.2723 16 47.8064C16 51.7854 18.8322 55.1062 22.5915 55.8569L22.6492 55.8685L22.7059 55.8845C23.0078 55.9699 23.3279 56.016 23.6612 56.016H24.1876L24.2079 56.0161H24.2115L24.2335 56.016L47.7701 56.016L47.7904 56.0161L47.8142 56.016L48.3386 56.016C48.6717 56.016 48.9916 55.9699 49.2933 55.8846L49.35 55.8686L49.4077 55.8571C53.1674 55.1067 56 51.7857 56 47.8064C56 43.2723 52.3244 39.5967 47.7904 39.5967L46.3548 39.5996L46.2727 38.1836C45.9595 32.7835 41.4794 28.5 35.9999 28.5ZM22.8772 36.6751C23.8908 30.3398 29.3797 25.5 35.9999 25.5C42.6202 25.5 48.1091 30.3398 49.1227 36.6751C54.6856 37.3339 59 42.0663 59 47.8064C59 53.2241 55.1581 57.7412 50.0509 58.7877C49.5037 58.9369 48.9292 59.016 48.3386 59.016L47.8178 59.016L47.7904 59.0161L47.7629 59.016L24.2335 59.016L24.2115 59.0161H24.2079L24.1858 59.016H23.6612C23.0702 59.016 22.4954 58.9368 21.948 58.7875C16.8413 57.7405 13 53.2237 13 47.8064C13 42.0663 17.3143 37.334 22.8772 36.6751Z" fill="#535966"/>
<path d="M32.2986 15C32.9461 10.4237 36.696 7 41.1058 7C45.2309 7 48.7691 9.98502 49.7469 14.123L49.9921 15.1607L51.0527 15.2701C54.9587 15.6732 57.9999 18.9667 57.9999 22.9609C57.9999 26.9782 55.2413 30.2168 51.4999 30.6847V33.7022C57.0307 33.2194 60.9999 28.5029 60.9999 22.9609C60.9999 17.7639 57.3 13.4355 52.3896 12.4426C50.8122 7.57125 46.3911 4 41.1058 4C34.9305 4 29.9459 8.86219 29.2764 15H32.2986Z" fill="#535966"/>
</svg>
