<svg width="64" height="64" viewBox="0 0 64 64" fill="none" xmlns="http://www.w3.org/2000/svg">
<path d="M32 4V7C27.4089 7 23 18.1272 23 32C23 45.8728 27.4089 57 32 57C36.5911 57 41 45.8728 41 32C41 31.512 40.9947 31.0256 40.984 30.5413L43.9833 30.4753C43.9944 30.9817 44 31.49 44 32C44 47.3983 39.0069 60 32 60C24.9931 60 20 47.3983 20 32C20 16.6017 24.9931 4 32 4Z" fill="#00BFB3"/>
<path d="M14 42V39H50V42H14Z" fill="#00BFB3"/>
<path d="M14 25V22H36.5V25H14Z" fill="#00BFB3"/>
<path d="M36.5216 4.36344L36.0406 7.32463C34.7138 7.10912 33.3641 7 32 7C18.1925 7 7 18.1928 7 32C7 45.8072 18.1925 57 32 57C45.8068 57 57 45.8068 57 32C57 25.9784 54.8656 20.2903 51.0417 15.8002L53.3256 13.8551C57.6075 18.8829 60 25.2588 60 32C60 47.4637 47.4637 60 32 60C16.5356 60 4 47.4641 4 32C4 16.5359 16.5356 4 32 4C33.5254 4 35.036 4.12212 36.5216 4.36344Z" fill="#535966"/>
<path fill-rule="evenodd" clip-rule="evenodd" d="M42 33.2834L43.1309 31.9854C50.0275 24.0701 53.5 18.1669 53.5 14C53.5 7.64873 48.3513 2.5 42 2.5C35.6487 2.5 30.5 7.64873 30.5 14C30.5 18.1669 33.9725 24.0701 40.8691 31.9854L42 33.2834ZM42 5.5C46.6944 5.5 50.5 9.30558 50.5 14C50.5 17.0038 47.68 21.9792 42 28.6974C36.32 21.9792 33.5 17.0038 33.5 14C33.5 9.30558 37.3056 5.5 42 5.5Z" fill="#535966"/>
</svg>
